# xmcd
# Copyright (c) 1998 CDDB Inc.
#
# Track frame offsets:
#	150
#	18053
#	34680
#	55185
#	74583
#	92880
#	114360
#	132718
#	149620
#	167225
#	188308
#
# Disc length: 2737 seconds
#
# Revision: 0
# Processed by: cddbd v1.5.2PL0 Copyright (c) Steve Scherf et al.
# Submitted via: AudioCatalyst 2.10full
#
DISCID=980aaf0b
DTITLE=De Palmas - La dernière année
DYEAR=1900
DGENRE=
TTITLE0=Sans recours
TTITLE1=Sur la route
TTITLE2=Si j'étais vous
TTITLE3=Comme une ombre
TTITLE4=Vérité
TTITLE5=À peine de la peine
TTITLE6=Mon alter ego
TTITLE7=La malédiction
TTITLE8=La dernière année
TTITLE9=Ici ou ailleurs
TTITLE10=Le jour viendra
EXTD=
EXTT0=
EXTT1=
EXTT2=
EXTT3=
EXTT4=
EXTT5=
EXTT6=
EXTT7=
EXTT8=
EXTT9=
EXTT10=
PLAYORDER=
